<svg xmlns="http://www.w3.org/2000/svg" width="1066.667" height="800" preserveAspectRatio="xMidYMid meet" version="1.0" viewBox="0 0 800 600"><g fill="#000" stroke="none"><path d="M4040 4735 c-110 -37 -179 -108 -199 -208 -8 -36 -11 -440 -9 -1337 l3 -1285 24 -53 c31 -69 98 -128 169 -148 86 -25 231 -15 300 20 56 28 103 84 124 145 9 27 14 240 18 827 l5 792 355 -606 c391 -668 417 -705 515 -732 75 -21 185 -17 239 10 85 41 127 103 491 730 192 331 353 604 357 606 5 3 8 -350 8 -784 0 -901 -3 -863 79 -942 66 -65 131 -84 265 -78 118 6 184 32 230 92 65 86 61 -14 61 1426 0 1030 -3 1314 -13 1347 -34 112 -134 182 -275 190 -150 10 -251 -31 -331 -134 -23 -29 -255 -425 -516 -882 -350 -612 -478 -826 -486 -818 -6 7 -224 385 -485 841 -414 724 -482 838 -534 891 -42 44 -75 67 -110 79 -69 25 -226 30 -285 11z" transform="translate(0.000000,600.000000) scale(0.100000,-0.100000)"/><path d="M1091 4689 c-82 -26 -150 -91 -177 -170 -18 -52 -19 -103 -19 -1314 0 -987 3 -1269 13 -1302 23 -77 72 -135 147 -173 67 -34 70 -35 189 -35 106 0 128 3 173 24 61 27 116 84 147 150 20 44 21 61 24 484 l3 437 342 0 c397 0 596 11 737 40 171 35 323 106 448 208 62 50 164 181 201 257 145 298 127 732 -42 992 -150 232 -398 371 -737 413 -51 6 -341 10 -735 9 -623 0 -653 -1 -714 -20z m1205 -509 c224 -20 357 -99 415 -246 31 -79 34 -259 6 -345 -38 -115 -126 -194 -267 -241 -62 -21 -86 -22 -462 -26 l-398 -3 0 429 c0 236 3 432 7 435 10 11 575 8 699 -3z" transform="translate(0.000000,600.000000) scale(0.100000,-0.100000)"/></g></svg>